<?xml version="1.0" standalone="no"?>
<!DOCTYPE svg PUBLIC "-//W3C//DTD SVG 20010904//EN"
 "http://www.w3.org/TR/2001/REC-SVG-20010904/DTD/svg10.dtd">
<svg version="1.0" xmlns="http://www.w3.org/2000/svg"
 width="700.000000pt" height="700.000000pt" viewBox="0 0 700.000000 700.000000"
 preserveAspectRatio="xMidYMid meet">
<metadata>
Created by potrace 1.11, written by Peter Selinger 2001-2013
</metadata>
<g transform="translate(0.000000,700.000000) scale(0.100000,-0.100000)"
fill="#000000" stroke="none">
<path d="M2775 6990 c-44 -14 -102 -66 -127 -113 -21 -40 -22 -54 -22 -312 0
-257 1 -272 22 -312 45 -86 110 -118 267 -128 74 -5 258 -28 330 -41 798 -144
1510 -554 2038 -1174 109 -128 117 -138 139 -170 10 -14 44 -63 77 -110 163
-231 311 -516 419 -805 55 -146 137 -453 157 -580 3 -22 10 -67 15 -100 17
-111 19 -130 25 -210 3 -44 8 -98 11 -120 7 -59 52 -125 108 -159 l48 -30 278
0 278 0 48 30 c30 18 60 48 79 78 27 45 30 57 29 130 0 75 -12 238 -19 276 -2
10 -6 41 -10 71 -37 311 -151 747 -272 1034 -18 44 -33 83 -33 87 0 18 -173
363 -240 478 -399 686 -966 1247 -1650 1633 -151 85 -285 151 -430 212 -74 31
-144 60 -155 66 -75 35 -524 167 -625 184 -19 3 -43 8 -52 11 -20 6 -51 12
-98 19 -20 3 -45 7 -55 9 -50 9 -131 21 -215 31 -30 4 -66 8 -80 10 -65 10
-258 13 -285 5z"/>
<path d="M239 5675 c-105 -38 -158 -83 -205 -175 l-29 -55 -2 -1810 c-1 -1013
2 -1836 7 -1870 5 -33 12 -85 16 -115 3 -30 8 -58 10 -61 2 -3 6 -21 9 -40 6
-35 36 -142 60 -214 133 -401 425 -774 800 -1021 116 -77 372 -197 475 -224
147 -38 242 -60 280 -65 25 -3 72 -9 105 -14 61 -9 389 -7 435 2 14 3 46 8 71
11 336 46 686 203 958 430 371 310 627 767 686 1224 25 195 25 451 -1 585 -2
12 -6 39 -10 61 -20 134 -89 345 -166 502 -49 103 -143 261 -172 290 -9 8 -16
19 -16 22 0 4 -10 18 -23 32 -12 14 -37 44 -56 68 -89 113 -278 281 -426 377
-182 119 -420 224 -590 261 -89 20 -155 30 -180 28 -123 -9 -229 -86 -280
-204 -19 -42 -20 -68 -20 -470 0 -416 0 -426 22 -470 37 -77 95 -124 232 -192
112 -54 135 -70 201 -138 108 -110 154 -200 184 -361 61 -316 -152 -642 -479
-735 -64 -18 -212 -24 -282 -11 -95 18 -201 64 -278 122 -40 30 -52 42 -112
108 -54 60 -116 186 -139 282 -4 17 -8 827 -10 1802 -1 1351 -5 1780 -14 1810
-32 100 -102 178 -200 219 -41 17 -76 19 -435 21 -299 1 -398 -2 -426 -12z"/>
<path d="M2788 5680 c-37 -11 -89 -44 -113 -72 -45 -52 -51 -98 -50 -374 1
-256 1 -260 25 -304 14 -24 44 -58 67 -76 43 -33 53 -35 248 -59 201 -25 447
-104 661 -214 226 -117 397 -244 570 -423 347 -361 553 -801 609 -1303 12
-107 56 -177 135 -212 28 -12 83 -16 292 -17 290 -2 323 3 381 59 51 50 70 90
71 155 0 55 -11 190 -19 213 -2 7 -6 36 -10 66 -3 29 -7 56 -9 60 -2 3 -7 24
-10 46 -32 201 -154 557 -269 780 -269 524 -649 933 -1162 1252 -258 160 -662
318 -970 379 -201 40 -396 59 -447 44z"/>
</g>
</svg>
